<?xml version="1.0" encoding="UTF-8" standalone="no"?>
<!-- Created with Inkscape (http://www.inkscape.org/) -->

<svg
   width="32"
   height="32"
   viewBox="0 0 8.4666665 8.4666666"
   version="1.1"
   id="svg1"
   inkscape:version="1.3.2 (091e20ef0f, 2023-11-25, custom)"
   sodipodi:docname="favicon.svg"
   xmlns:inkscape="http://www.inkscape.org/namespaces/inkscape"
   xmlns:sodipodi="http://sodipodi.sourceforge.net/DTD/sodipodi-0.dtd"
   xmlns="http://www.w3.org/2000/svg"
   xmlns:svg="http://www.w3.org/2000/svg">
  <sodipodi:namedview
     id="namedview1"
     pagecolor="#ffffff"
     bordercolor="#000000"
     borderopacity="0.25"
     inkscape:showpageshadow="2"
     inkscape:pageopacity="0.0"
     inkscape:pagecheckerboard="0"
     inkscape:deskcolor="#d1d1d1"
     inkscape:document-units="mm"
     inkscape:zoom="13.811145"
     inkscape:cx="23.821342"
     inkscape:cy="27.405404"
     inkscape:window-width="1908"
     inkscape:window-height="1046"
     inkscape:window-x="0"
     inkscape:window-y="0"
     inkscape:window-maximized="1"
     inkscape:current-layer="layer1" />
  <defs
     id="defs1" />
  <g
     inkscape:label="Layer 1"
     inkscape:groupmode="layer"
     id="layer1">
    <rect
       transform="scale(1,-1)"
       x="0.79255223"
       y="-0.80856973"
       width="2.2804875"
       height="0.65113848"
       id=".x7fb48cd26890.t7fb48cc1a7d0i0 inlet"
       style="fill:#010101;fill-opacity:1;stroke:#000000;stroke-width:0.264583;stroke-opacity:1"
       clip-path="none" />
    <path
       d="m 4.872614,1.1642467 v 0.03302 A 0.70299316,0.70252975 0 0 1 4.1698122,1.8996058 0.70299316,0.70252975 0 0 1 3.4670107,1.1972674 V 1.1642467 H 1.106716 V 7.2898469 H 7.2363564 V 1.1642467 Z M 4.0318952,6.6342162 3.7334585,5.1583296 h -0.00517 L 3.40533,6.6342162 H 2.9940705 L 2.5280263,4.4656583 H 2.9341147 L 3.212056,5.9415449 h 0.00517 L 3.552154,4.4656583 h 0.379942 l 0.3007354,1.4931148 h 0.00517 L 4.5552166,4.4656583 h 0.398714 L 4.4363589,6.6342162 Z m 2.236074,0 L 6.1295732,6.151538 H 5.3988053 L 5.2923026,6.6342162 H 4.8862138 L 5.4113518,4.4656583 H 6.0530484 L 6.6913931,6.6342162 Z M 5.8267305,5.000021 H 5.655867 L 5.4786819,5.7957749 h 0.5513806 z"
       id="path1"
       style="fill:#654ff0;stroke-width:0.0777875;stroke-dasharray:none"
       clip-path="none" />
    <rect
       style="fill:#000000;fill-opacity:1;stroke:#000000;stroke-width:0.264297;stroke-opacity:1"
       id="rect4160"
       height="0.65149218"
       width="2.2742987"
       y="-8.2968397"
       x="0.79237515"
       transform="scale(1,-1)"
       clip-path="none" />
    <g
       style="fill:#654ff0;stroke-width:0.812411"
       id="g2"
       transform="matrix(0.09577563,0,0,0.0957125,-2.5287829,1.1642465)"
       clip-path="none">
      <rect
         x="37.5"
         y="0.50000191"
         width="7"
         height="2"
         id=".x7fb48cd26890.t7fb48cc1a7d0i1 inlet"
         style="fill:#000000;fill-opacity:1;stroke:#000000;stroke-width:0.812411;stroke-opacity:1"
         transform="matrix(3.4015328,0,0,3.4015328,-44.534487,-12.219934)" />
    </g>
    <rect
       style="fill:none;stroke:#000000;stroke-width:0.15531;stroke-dasharray:none;stroke-opacity:1"
       id="rect5"
       width="7.1667447"
       height="8.2798471"
       x="0.64244241"
       y="0.090201221"
       clip-path="none" />
  </g>
</svg>
