<?xml version="1.0" encoding="UTF-8" standalone="no"?>
<svg
   width="22.466887"
   height="26.018909"
   version="1.1"
   id="svg2"
   sodipodi:docname="rect5.svg"
   inkscape:version="1.3.2 (091e20ef0f, 2023-11-25, custom)"
   xml:space="preserve"
   xmlns:inkscape="http://www.inkscape.org/namespaces/inkscape"
   xmlns:sodipodi="http://sodipodi.sourceforge.net/DTD/sodipodi-0.dtd"
   xmlns="http://www.w3.org/2000/svg"
   xmlns:svg="http://www.w3.org/2000/svg"
   xmlns:rdf="http://www.w3.org/1999/02/22-rdf-syntax-ns#"
   xmlns:cc="http://creativecommons.org/ns#"
   xmlns:dc="http://purl.org/dc/elements/1.1/"><sodipodi:namedview
     id="namedview15"
     pagecolor="#ffffff"
     bordercolor="#000000"
     borderopacity="0.25"
     inkscape:showpageshadow="2"
     inkscape:pageopacity="0.0"
     inkscape:pagecheckerboard="0"
     inkscape:deskcolor="#d1d1d1"
     showgrid="false"
     inkscape:zoom="27.292054"
     inkscape:cx="9.2884177"
     inkscape:cy="12.842566"
     inkscape:window-width="1908"
     inkscape:window-height="1046"
     inkscape:window-x="0"
     inkscape:window-y="0"
     inkscape:window-maximized="1"
     inkscape:current-layer="svg2" /><metadata
     id="metadata17"><rdf:RDF><cc:Work
         rdf:about=""><dc:format>image/svg+xml</dc:format><dc:type
           rdf:resource="http://purl.org/dc/dcmitype/StillImage" /></cc:Work></rdf:RDF></metadata><defs
     id="defs15" /><rect
     transform="scale(1,-1)"
     x="0.75426513"
     y="-2.5000002"
     width="6.9999995"
     height="2.0000002"
     id=".x7fb48cd26890.t7fb48cc1a7d0i0 inlet"
     style="fill:#010101;fill-opacity:1;stroke:#000000;stroke-width:1;stroke-opacity:1"
     clip-path="none" /><path
     d="M 13.278091,3.5924774 V 3.6939023 A 2.1578507,2.1578507 0 0 1 11.120828,5.851165 2.1578507,2.1578507 0 0 1 8.9635654,3.6939023 V 3.5924774 H 1.7185964 V 22.407525 H 20.533643 V 3.5924774 Z M 10.697489,20.393727 9.781432,15.860477 h -0.01588 l -0.9913166,4.53325 h -1.262369 l -1.430531,-6.66082 h 1.246496 l 0.853146,4.53325 h 0.01588 l 1.0280656,-4.53325 h 1.166239 l 0.923113,4.586167 h 0.01588 l 0.973679,-4.586167 h 1.22386 l -1.588696,6.66082 z m 6.863671,0 -0.424809,-1.482567 h -2.243106 l -0.326912,1.482567 h -1.246497 l 1.611921,-6.66082 h 1.9697 l 1.959411,6.66082 z m -1.35439,-5.019502 h -0.524469 l -0.543873,2.444193 h 1.692473 z"
     id="path1"
     style="fill:#654ff0;stroke-width:0.294;stroke-dasharray:none"
     clip-path="none" /><rect
     style="fill:#000000;fill-opacity:1;stroke:#000000;stroke-width:0.998913;stroke-opacity:1"
     id="rect4160"
     height="2.0010867"
     width="6.9810028"
     y="-25.500546"
     x="0.75372159"
     transform="scale(1,-1)"
     clip-path="none" /><g
     style="fill:#654ff0"
     id="g1"
     transform="matrix(0.29398511,0,0,0.29398511,-9.440636,3.5924767)"
     clip-path="none"><rect
       x="37.5"
       y="0.50000191"
       width="7"
       height="2"
       id=".x7fb48cd26890.t7fb48cc1a7d0i1 inlet"
       style="fill:#000000;fill-opacity:1;stroke:#000000;stroke-width:1;stroke-opacity:1"
       transform="matrix(3.4015328,0,0,3.4015328,-44.534487,-12.219934)" /></g><rect
     style="fill:none;stroke:#000000;stroke-width:0.587;stroke-dasharray:none;stroke-opacity:1"
     id="rect5"
     width="21.998457"
     height="25.43191"
     x="0.29350001"
     y="0.29350004"
     clip-path="none" /></svg>
