<?xml version="1.0" encoding="UTF-8" standalone="no"?>
<!-- Created with Inkscape (http://www.inkscape.org/) -->

<svg
   width="32"
   height="32"
   viewBox="0 0 8.4666665 8.4666666"
   version="1.1"
   id="svg1"
   inkscape:version="1.3.2 (091e20ef0f, 2023-11-25, custom)"
   sodipodi:docname="favicon.svg"
   xmlns:inkscape="http://www.inkscape.org/namespaces/inkscape"
   xmlns:sodipodi="http://sodipodi.sourceforge.net/DTD/sodipodi-0.dtd"
   xmlns="http://www.w3.org/2000/svg"
   xmlns:svg="http://www.w3.org/2000/svg">
  <sodipodi:namedview
     id="namedview1"
     pagecolor="#ffffff"
     bordercolor="#000000"
     borderopacity="0.25"
     inkscape:showpageshadow="2"
     inkscape:pageopacity="0.0"
     inkscape:pagecheckerboard="0"
     inkscape:deskcolor="#d1d1d1"
     inkscape:document-units="mm"
     inkscape:zoom="24.277403"
     inkscape:cx="17.135276"
     inkscape:cy="27.494703"
     inkscape:window-width="1908"
     inkscape:window-height="1046"
     inkscape:window-x="0"
     inkscape:window-y="0"
     inkscape:window-maximized="1"
     inkscape:current-layer="layer1" />
  <defs
     id="defs1">
    <inkscape:path-effect
       effect="fillet_chamfer"
       id="path-effect2"
       is_visible="true"
       lpeversion="1"
       nodesatellites_param="F,0,0,1,0,1.1583527,0,1 @ F,0,1,1,0,1.1583527,0,1 @ F,0,1,1,0,1.1583527,0,1 @ F,0,1,1,0,1.1583527,0,1"
       radius="0"
       unit="px"
       method="auto"
       mode="F"
       chamfer_steps="1"
       flexible="false"
       use_knot_distance="true"
       apply_no_radius="true"
       apply_with_radius="true"
       only_selected="false"
       hide_knots="false" />
    <inkscape:path-effect
       effect="fillet_chamfer"
       id="path-effect1"
       is_visible="true"
       lpeversion="1"
       nodesatellites_param="F,0,0,1,0,0,0,1 @ F,0,0,1,0,0,0,1 @ F,0,0,1,0,0,0,1 @ F,0,0,1,0,0,0,1"
       radius="0"
       unit="px"
       method="auto"
       mode="F"
       chamfer_steps="1"
       flexible="false"
       use_knot_distance="true"
       apply_no_radius="true"
       apply_with_radius="true"
       only_selected="false"
       hide_knots="false" />
  </defs>
  <g
     inkscape:label="Layer 1"
     inkscape:groupmode="layer"
     id="layer1">
    <path
       id="7fb48d028a00BASE"
       style="fill:#654ff0;stroke-width:0.25649"
       d="m 1.3094503,0.14254379 h 5.861174 A 1.1583527,1.1583527 45 0 1 8.328977,1.3008965 l 0,5.8611739 A 1.1583527,1.1583527 135 0 1 7.1706243,8.3204231 H 1.3094503 A 1.1583527,1.1583527 45 0 1 0.15109763,7.1620704 l 0,-5.8611739 A 1.1583527,1.1583527 135 0 1 1.3094503,0.14254379 Z"
       inkscape:path-effect="#path-effect2"
       inkscape:original-d="M 0.15109763,0.14254379 H 8.328977 V 8.3204231 H 0.15109763 Z"
       transform="matrix(1.0301789,0,0,1.0329275,-0.13147663,-0.1290939)" />
    <path
       id="7fb48d028a00BUT"
       style="fill:#654ff0;fill-opacity:1;stroke:#ffffff;stroke-width:0.484707;stroke-dasharray:none;stroke-opacity:1"
       sodipodi:type="inkscape:offset"
       inkscape:radius="0"
       inkscape:original="M 4.2402344 0.6875 A 3.5437472 3.5437472 0 0 0 0.69726562 4.2324219 A 3.5437472 3.5437472 0 0 0 4.2402344 7.7753906 A 3.5437472 3.5437472 0 0 0 7.7832031 4.2324219 A 3.5437472 3.5437472 0 0 0 4.2402344 0.6875 z "
       d="M 4.2402344,0.6875 A 3.5437472,3.5437472 0 0 0 0.69726562,4.2324219 3.5437472,3.5437472 0 0 0 4.2402344,7.7753906 3.5437472,3.5437472 0 0 0 7.7832031,4.2324219 3.5437472,3.5437472 0 0 0 4.2402344,0.6875 Z"
       transform="matrix(1.0301789,0,0,1.0329275,-0.13147663,-0.1290939)" />
    <g
       id="Workspace"
       transform="matrix(0.33205311,0,0,0.33293906,0.22428118,0.2468645)"
       inkscape:export-filename="icon.svg"
       inkscape:export-xdpi="294.52328"
       inkscape:export-ydpi="294.52328"
       style="stroke-width:0.470459">
      <rect
         class="cls-1"
         height="24"
         width="24"
         id="rect1"
         x="0"
         y="0"
         style="fill:none;stroke-width:0.470459" />
      <path
         class="cls-2"
         d="m 18.54,14.5 a 7,7 0 0 1 -13.08,0"
         id="path1"
         style="fill:none;stroke:#ffffff;stroke-width:1.37145;stroke-linecap:round;stroke-linejoin:round;stroke-dasharray:none;stroke-opacity:1" />
      <path
         class="cls-2"
         d="m 5.46,9.5 a 7,7 0 0 1 13.08,0"
         id="path2"
         style="fill:none;stroke:#ffffff;stroke-width:1.37145;stroke-linecap:round;stroke-linejoin:round;stroke-dasharray:none;stroke-opacity:1" />
      <line
         class="cls-2"
         x1="5.46"
         x2="18.540001"
         y1="9.5"
         y2="9.5"
         id="line2"
         style="fill:none;stroke:#ffffff;stroke-width:0.470459;stroke-linecap:round;stroke-linejoin:round;stroke-opacity:1" />
      <line
         class="cls-2"
         x1="5.46"
         x2="18.540001"
         y1="14.5"
         y2="14.5"
         id="line3"
         style="fill:none;stroke:#ffffff;stroke-width:1.37145;stroke-linecap:round;stroke-linejoin:round;stroke-dasharray:none;stroke-opacity:1" />
      <polyline
         class="cls-2"
         points="4 11 5 13 6 11 7 13 8 11"
         id="polyline3"
         style="fill:none;stroke:#ffffff;stroke-width:0.469179;stroke-linecap:round;stroke-linejoin:round;stroke-dasharray:none;stroke-opacity:1" />
      <polyline
         class="cls-2"
         points="10 11 11 13 12 11 13 13 14 11"
         id="polyline4"
         style="fill:none;stroke:#ffffff;stroke-width:0.469179;stroke-linecap:round;stroke-linejoin:round;stroke-dasharray:none;stroke-opacity:1" />
      <polyline
         class="cls-2"
         points="16 11 17 13 18 11 19 13 20 11"
         id="polyline5"
         style="fill:none;stroke:#ffffff;stroke-width:0.469179;stroke-linecap:round;stroke-linejoin:round;stroke-dasharray:none;stroke-opacity:1" />
      <path
         class="cls-2"
         d="M 14.68,9.5 A 9.21,9.21 0 0 0 12,5 9.18,9.18 0 0 0 9.33,9.47"
         id="path5"
         style="fill:none;stroke:#ffffff;stroke-width:1.37145;stroke-linecap:round;stroke-linejoin:round;stroke-dasharray:none;stroke-opacity:1" />
      <path
         class="cls-2"
         d="M 9.32,14.5 A 9.21,9.21 0 0 0 12,19 9.21,9.21 0 0 0 14.68,14.5"
         id="path6"
         style="fill:none;stroke:#ffffff;stroke-width:1.37145;stroke-linecap:round;stroke-linejoin:round;stroke-dasharray:none;stroke-opacity:1" />
    </g>
  </g>
</svg>
