<?xml version="1.0" encoding="UTF-8" standalone="no"?>
<svg
   width="45"
   height="26.000002"
   version="1.1"
   id="svg2"
   sodipodi:docname="icon-light.svg"
   inkscape:version="1.3 (0e150ed6c4, 2023-07-21)"
   xml:space="preserve"
   xmlns:inkscape="http://www.inkscape.org/namespaces/inkscape"
   xmlns:sodipodi="http://sodipodi.sourceforge.net/DTD/sodipodi-0.dtd"
   xmlns="http://www.w3.org/2000/svg"
   xmlns:svg="http://www.w3.org/2000/svg"
   xmlns:rdf="http://www.w3.org/1999/02/22-rdf-syntax-ns#"
   xmlns:cc="http://creativecommons.org/ns#"
   xmlns:dc="http://purl.org/dc/elements/1.1/"><sodipodi:namedview
     id="namedview15"
     pagecolor="#ffffff"
     bordercolor="#000000"
     borderopacity="0.25"
     inkscape:showpageshadow="2"
     inkscape:pageopacity="0.0"
     inkscape:pagecheckerboard="0"
     inkscape:deskcolor="#d1d1d1"
     showgrid="false"
     inkscape:zoom="10.155183"
     inkscape:cx="8.8132336"
     inkscape:cy="13.047525"
     inkscape:window-width="1920"
     inkscape:window-height="1011"
     inkscape:window-x="0"
     inkscape:window-y="0"
     inkscape:window-maximized="1"
     inkscape:current-layer="svg2" /><metadata
     id="metadata17"><rdf:RDF><cc:Work
         rdf:about=""><dc:format>image/svg+xml</dc:format><dc:type
           rdf:resource="http://purl.org/dc/dcmitype/StillImage" /></cc:Work></rdf:RDF></metadata><defs
     id="defs15"><linearGradient
       id="a"
       x1="-133.26801"
       y1="-202.91"
       x2="-133.198"
       y2="-202.84"
       gradientTransform="matrix(189.38,0,0,189.81,25243.061,38519.17)"
       gradientUnits="userSpaceOnUse"><stop
         offset="0"
         stop-color="#387eb8"
         id="stop1743" /><stop
         offset="1"
         stop-color="#366994"
         id="stop1745" /></linearGradient><linearGradient
       id="b"
       x1="-133.575"
       y1="-203.203"
       x2="-133.495"
       y2="-203.133"
       gradientTransform="matrix(189.38,0,0,189.81,25309.061,38583.42)"
       gradientUnits="userSpaceOnUse"><stop
         offset="0"
         stop-color="#ffe052"
         id="stop1748" /><stop
         offset="1"
         stop-color="#ffc331"
         id="stop1750" /></linearGradient></defs><rect
     style="fill:#ffffff;fill-opacity:1;stroke:#000000;stroke-width:1.44244;stroke-dasharray:none;stroke-opacity:1"
     id="rect1"
     width="49.963993"
     height="29.59428"
     x="10.222417"
     y="31.827623"
     transform="matrix(0.29398511,0,0,0.29398511,13.092476,3.5924785)" /><polyline
     transform="translate(-103.5,-98.499998)"
     points="104.0 99.0 148.0 99.0 148.0 124.0 104.0 124.0 104.0 99.0"
     id=".x7fb48cd26890.t7fb48cc1a7d0R obj"
     style="fill:none;fill-opacity:1;stroke:#000000;stroke-width:1;stroke-linejoin:miter;stroke-opacity:1"
     inkscape:export-filename="py4pd2.svg"
     inkscape:export-xdpi="96"
     inkscape:export-ydpi="96" /><rect
     transform="scale(1,-1)"
     x="0.5"
     y="-2.5"
     width="6.9999995"
     height="2.0000002"
     id=".x7fb48cd26890.t7fb48cc1a7d0i0 inlet"
     style="fill:#010101;fill-opacity:1;stroke:#000000;stroke-width:1;stroke-opacity:1" /><path
     d="M 39.32,0 V 0.345 A 7.34,7.34 0 0 1 31.982,7.683 7.34,7.34 0 0 1 24.644,0.345 V 0 H 0 V 64 H 64 V 0 Z M 30.542,57.15 27.426,41.73 H 27.372 L 24,57.15 H 19.706 L 14.84,34.493 h 4.24 l 2.902,15.42 h 0.054 l 3.497,-15.42 H 29.5 l 3.14,15.6 h 0.054 l 3.312,-15.6 h 4.163 L 34.765,57.15 Z m 23.347,0 -1.445,-5.043 h -7.63 l -1.112,5.043 h -4.24 l 5.483,-22.657 h 6.7 L 58.31,57.15 Z M 49.282,40.076 h -1.784 l -1.85,8.314 h 5.757 z"
     id="path1"
     style="fill:#654ff0;stroke-width:1.00005065;stroke-dasharray:none"
     transform="matrix(0.29398511,0,0,0.29398511,13.092476,3.5924785)" /><rect
     style="fill:#000000;stroke:#000000;stroke-width:0.998913;stroke-opacity:1;fill-opacity:1"
     id="rect4160"
     height="2.0010867"
     width="6.9810028"
     y="-25.413759"
     x="0.49945688"
     transform="scale(1,-1)" /><g
     style="fill:#654ff0"
     id="g1"
     transform="matrix(0.29398511,0,0,0.29398511,13.092476,3.5924785)"><rect
       x="37.5"
       y="0.50000191"
       width="7"
       height="2"
       id=".x7fb48cd26890.t7fb48cc1a7d0i1 inlet"
       style="fill:#000000;stroke:#000000;stroke-width:1;stroke-opacity:1;fill-opacity:1"
       transform="matrix(3.4015328,0,0,3.4015328,-44.534487,-12.219934)" /></g></svg>
