<?xml version="1.0" encoding="UTF-8" standalone="no" ?>
<svg xmlns="http://www.w3.org/2000/svg" width="26.136px" height="25.336px" viewBox="0 -950 1444 1400" xmlns:xlink="http://www.w3.org/1999/xlink"><defs><path id="MJX-6-NCM-LO-2211" d="M1265-450L1389-124L1355-124C1336-174 1304-216 1258-250C1145-334 1000-356 791-356L200-356L700 232C707 239 710 246 710 251L244 894L781 894C970 894 1127 870 1230 804C1290 766 1332 719 1356 663L1389 663L1265 950L88 950C70 950 60 947 57 941C56 938 56 926 56 905L581 187L68-415C61-423 57-430 57-435C57-445 67-450 88-450Z"/></defs><g stroke="#000000" fill="#000000" stroke-width="0" transform="scale(1,-1)"><g data-mml-node="math" data-latex="\sum" data-semantic-structure="0"><g data-mml-node="mo" data-latex="\sum" data-semantic-type="largeop" data-semantic-role="sum" data-semantic-annotation="nemeth:number;depth:1" data-semantic-id="0" data-semantic-attributes="latex:\sum" aria-level="0" data-speech-node="true"><use data-c="2211" xlink:href="#MJX-6-NCM-LO-2211" xmlns:xlink="http://www.w3.org/1999/xlink"/></g></g></g></svg>