<?xml version="1.0" encoding="UTF-8" standalone="no"?>
<svg
   width="54"
   height="54"
   version="1.1"
   id="svg2"
   sodipodi:docname="icon.svg"
   xml:space="preserve"
   inkscape:version="1.3 (0e150ed6c4, 2023-07-21)"
   xmlns:inkscape="http://www.inkscape.org/namespaces/inkscape"
   xmlns:sodipodi="http://sodipodi.sourceforge.net/DTD/sodipodi-0.dtd"
   xmlns="http://www.w3.org/2000/svg"
   xmlns:svg="http://www.w3.org/2000/svg"
   xmlns:rdf="http://www.w3.org/1999/02/22-rdf-syntax-ns#"
   xmlns:cc="http://creativecommons.org/ns#"
   xmlns:dc="http://purl.org/dc/elements/1.1/"><sodipodi:namedview
     id="namedview1"
     pagecolor="#ffffff"
     bordercolor="#000000"
     borderopacity="0.25"
     inkscape:showpageshadow="2"
     inkscape:pageopacity="0.0"
     inkscape:pagecheckerboard="0"
     inkscape:deskcolor="#d1d1d1"
     inkscape:zoom="8.9242841"
     inkscape:cx="25.828402"
     inkscape:cy="14.174806"
     inkscape:window-width="1920"
     inkscape:window-height="1011"
     inkscape:window-x="0"
     inkscape:window-y="0"
     inkscape:window-maximized="1"
     inkscape:current-layer="Workspace" /><metadata
     id="metadata17"><rdf:RDF><cc:Work
         rdf:about=""><dc:format>image/svg+xml</dc:format><dc:type
           rdf:resource="http://purl.org/dc/dcmitype/StillImage" /><dc:title /></cc:Work></rdf:RDF></metadata><defs
     id="defs15"><style
       id="style1">.cls-1,.cls-2{fill:none;}.cls-2{stroke:#000;stroke-linecap:round;stroke-linejoin:round;}</style></defs><text
     x="17.5"
     y="19"
     id="7fb48d028a00LABEL label text"
     style="font-size:10px;font-family:Monaco;fill:#000000;stroke-width:0" /><rect
     x="5"
     y="4.5"
     width="15"
     height="15"
     id="7fb48d028a00BASE"
     style="fill:#654ff0;stroke:#000000;stroke-width:1;fill-opacity:1" /><circle
     r="6.5"
     cx="12.5"
     cy="12"
     id="7fb48d028a00BUT"
     style="fill:#654ff0;stroke:#ffffff;stroke-width:1;fill-opacity:1;stroke-opacity:1" /><polyline
     transform="translate(-99,-74.5)"
     points="104.0 99.0 148.0 99.0 148.0 124.0 104.0 124.0 104.0 99.0"
     id=".x7fb48cd26890.t7fb48cc1a7d0R obj"
     style="fill:#ffffff;stroke:#000000;stroke-width:1;stroke-linejoin:miter;fill-opacity:1" /><rect
     transform="scale(1,-1)"
     x="5"
     y="-26.499998"
     width="6.9999995"
     height="2.0000002"
     id=".x7fb48cd26890.t7fb48cc1a7d0i0 inlet"
     style="fill:#000000;stroke:#000000;stroke-width:1" /><rect
     x="42"
     y="24.5"
     width="7"
     height="2"
     id=".x7fb48cd26890.t7fb48cc1a7d0i1 inlet"
     style="fill:#000000;stroke:#000000;stroke-width:1" /><text
     x="7"
     y="44.456055"
     id=".x7fb48cd26890.t7fb48cc1a7d0 obj text"
     style="font-style:normal;font-variant:normal;font-weight:bold;font-stretch:normal;font-size:20px;line-height:125%;font-family:'DejaVu Sans Mono';-inkscape-font-specification:'DejaVu Sans Mono, Bold';text-align:start;writing-mode:lr-tb;text-anchor:start;opacity:1;fill:#000000;stroke-width:0;fill-opacity:1;"><tspan
       id="tspan4141"
       style="font-style:normal;font-variant:normal;font-weight:bold;font-stretch:normal;font-size:20px;line-height:125%;font-family:'DejaVu Sans Mono';-inkscape-font-specification:'DejaVu Sans Mono, Bold';text-align:start;letter-spacing:1px;writing-mode:lr-tb;text-anchor:start;fill:#000000;fill-opacity:1;opacity:1">Pd</tspan></text><polyline
     transform="translate(-99,-74.5)"
     points="107.0 94.0 107.0 99.0"
     id="l7fb48cc19700 cord"
     style="fill:none;stroke:#000000;stroke-width:1;stroke-linejoin:round" /><rect
     style="fill:#000000;stroke:#000000;stroke-width:0.99891341"
     id="rect4160"
     height="2.0010867"
     width="6.9810028"
     y="-49.413757"
     x="4.9994569"
     transform="scale(1,-1)" /><g
     id="Workspace"
     transform="matrix(0.59121509,0,0,0.59121509,5.3562754,4.9061522)"><rect
       class="cls-1"
       height="24"
       width="24"
       id="rect1"
       x="0"
       y="0" /><path
       class="cls-2"
       d="m 18.54,14.5 a 7,7 0 0 1 -13.08,0"
       id="path1"
       style="stroke:#ffffff;stroke-opacity:1" /><path
       class="cls-2"
       d="m 5.46,9.5 a 7,7 0 0 1 13.08,0"
       id="path2"
       style="stroke:#ffffff;stroke-opacity:1" /><line
       class="cls-2"
       x1="5.46"
       x2="18.540001"
       y1="9.5"
       y2="9.5"
       id="line2"
       style="stroke:#ffffff;stroke-opacity:1" /><line
       class="cls-2"
       x1="5.46"
       x2="18.540001"
       y1="14.5"
       y2="14.5"
       id="line3"
       style="stroke:#ffffff;stroke-opacity:1" /><polyline
       class="cls-2"
       points="4 11 5 13 6 11 7 13 8 11"
       id="polyline3"
       style="stroke:#ffffff;stroke-opacity:1" /><polyline
       class="cls-2"
       points="10 11 11 13 12 11 13 13 14 11"
       id="polyline4"
       style="stroke:#ffffff;stroke-opacity:1" /><polyline
       class="cls-2"
       points="16 11 17 13 18 11 19 13 20 11"
       id="polyline5"
       style="stroke:#ffffff;stroke-opacity:1" /><path
       class="cls-2"
       d="M 14.68,9.5 A 9.21,9.21 0 0 0 12,5 9.18,9.18 0 0 0 9.33,9.47"
       id="path5"
       style="stroke:#ffffff;stroke-opacity:1" /><path
       class="cls-2"
       d="M 9.32,14.5 A 9.21,9.21 0 0 0 12,19 9.21,9.21 0 0 0 14.68,14.5"
       id="path6"
       style="stroke:#ffffff;stroke-opacity:1" /></g></svg>
